<svg xmlns="http://www.w3.org/2000/svg" viewBox="0 0 1200 1200" width="1200" height="1200" role="img" aria-label="zapatilla de skate">
  <defs>
    <radialGradient id="bg-skate-4A4E3D-back" cx="50%" cy="38%" r="78%">
      <stop offset="0%" stop-color="#fbf5e9"/>
      <stop offset="100%" stop-color="#d9d3c7"/>
    </radialGradient>
    <linearGradient id="upper-skate-4A4E3D-back" x1="14%" y1="0%" x2="86%" y2="100%">
      <stop offset="0%" stop-color="#707463"/>
      <stop offset="46%" stop-color="#4A4E3D"/>
      <stop offset="100%" stop-color="#2c301f"/>
    </linearGradient>
    <linearGradient id="mid-skate-4A4E3D-back" x1="0%" y1="0%" x2="0%" y2="100%">
      <stop offset="0%" stop-color="#d0c7b5"/>
      <stop offset="100%" stop-color="#b0a795"/>
    </linearGradient>
    <radialGradient id="fold-skate-4A4E3D-back" cx="32%" cy="22%" r="74%">
      <stop offset="0%" stop-color="#ffffff" stop-opacity="0.20"/>
      <stop offset="58%" stop-color="#ffffff" stop-opacity="0"/>
      <stop offset="100%" stop-color="#000000" stop-opacity="0.22"/>
    </radialGradient>
    <filter id="grain-skate-4A4E3D-back">
      <feTurbulence type="fractalNoise" baseFrequency="0.9" numOctaves="3" seed="7"/>
      <feColorMatrix type="saturate" values="0"/>
    </filter>
    <filter id="drop-skate-4A4E3D-back" x="-30%" y="-30%" width="160%" height="160%">
      <feDropShadow dx="0" dy="14" stdDeviation="13" flood-color="#3a3128" flood-opacity="0.10"/>
    </filter>
    <filter id="weave-skate-4A4E3D-back">
      <feTurbulence type="fractalNoise" baseFrequency="0.55 0.72" numOctaves="2" seed="9" result="n"/>
      <feColorMatrix in="n" type="saturate" values="0"/>
      <feComponentTransfer><feFuncA type="linear" slope="0.11"/></feComponentTransfer>
    </filter>
    <clipPath id="body-skate-4A4E3D-back"><path d="M186,756 C178,690 220,640 304,620
      L520,570 C578,556 614,536 640,506
      L658,472 C672,452 700,454 710,476
      C726,514 746,538 778,554
      C828,580 884,578 924,552
      C952,534 984,548 988,582
      L1000,700 C1004,730 986,750 954,752
      L186,756 Z"/></clipPath>
  </defs>

  <rect x="-400" y="-400" width="2000" height="2000" fill="url(#bg-skate-4A4E3D-back)"/>
  <ellipse cx="600" cy="890" rx="440" ry="26" fill="#3a3128" opacity="0.07"/>

  <g filter="url(#drop-skate-4A4E3D-back)" transform="translate(1200,0) scale(-1,1)">
    <path d="M150,834 C142,810 160,792 196,790 L1012,770
      C1052,768 1074,786 1076,814 L1078,836
      C1080,864 1058,880 1018,882 L208,892
      C166,894 150,876 150,834 Z" fill="#867d6b"/><path d="M150,834 C142,810 160,792 196,790 L1012,770
      C1052,768 1074,786 1076,814 L1078,836
      C1080,864 1058,880 1018,882 L208,892
      C166,894 150,876 150,834 Z" fill="none" stroke="#645b49" stroke-opacity="0.55" stroke-width="2.6" stroke-linejoin="round"/>
    <path d="M154,808 C148,772 174,748 218,746 L996,730
      C1040,728 1064,754 1062,792 L1062,812 L154,828 Z" fill="url(#mid-skate-4A4E3D-back)"/><path d="M154,808 C148,772 174,748 218,746 L996,730
      C1040,728 1064,754 1062,792 L1062,812 L154,828 Z" fill="none" stroke="#827967" stroke-opacity="0.55" stroke-width="2.6" stroke-linejoin="round"/>

    <path d="M186,756 C178,690 220,640 304,620
      L520,570 C578,556 614,536 640,506
      L658,472 C672,452 700,454 710,476
      C726,514 746,538 778,554
      C828,580 884,578 924,552
      C952,534 984,548 988,582
      L1000,700 C1004,730 986,750 954,752
      L186,756 Z" fill="url(#upper-skate-4A4E3D-back)"/>
    <g clip-path="url(#body-skate-4A4E3D-back)">
      <rect x="0" y="0" width="1200" height="1200" fill="url(#fold-skate-4A4E3D-back)"/>
      <rect x="0" y="0" width="1200" height="1200" filter="url(#weave-skate-4A4E3D-back)" opacity="0.6"/>
      <path d="M186,756 C180,694 218,646 296,626 L388,604 L398,756 Z" fill="#2c301f" fill-opacity="0.30"/><path d="M186,756 C180,694 218,646 296,626 L388,604 L398,756 Z" fill="none" stroke="#2c301f" stroke-opacity="0.55" stroke-width="2.6" stroke-linejoin="round"/>
      <path d="M898,564 C930,570 960,564 978,554 L996,712 L886,720 Z" fill="#2c301f" fill-opacity="0.30"/><path d="M898,564 C930,570 960,564 978,554 L996,712 L886,720 Z" fill="none" stroke="#2c301f" stroke-opacity="0.55" stroke-width="2.6" stroke-linejoin="round"/>
      <path d="M436,716 C450,652 504,616 574,612 C622,610 650,640 644,684 L638,726 Z" fill="#2c301f" fill-opacity="0.30"/><path d="M436,716 C450,652 504,616 574,612 C622,610 650,640 644,684 L638,726 Z" fill="none" stroke="#2c301f" stroke-opacity="0.55" stroke-width="2.6" stroke-linejoin="round"/>
    </g>
    <path d="M186,756 C178,690 220,640 304,620
      L520,570 C578,556 614,536 640,506
      L658,472 C672,452 700,454 710,476
      C726,514 746,538 778,554
      C828,580 884,578 924,552
      C952,534 984,548 988,582
      L1000,700 C1004,730 986,750 954,752
      L186,756 Z" fill="none" stroke="#2c301f" stroke-opacity="0.55" stroke-width="2.6" stroke-linejoin="round"/>

    <path d="M712,490 C728,528 750,552 782,568 C832,594 888,592 928,566" fill="none" stroke="#1a1e0d" stroke-opacity="0.55" stroke-width="14" stroke-linecap="round"/>

    <g fill="none" stroke="rgba(255,255,255,0.24)" stroke-width="2.4" stroke-dasharray="8 7" stroke-linecap="round">
      <path d="M398,756 L388,604"/>
      <path d="M886,720 L898,564"/>
      <path d="M154,828 L1062,796"/>
      <path d="M154,790 L1062,758"/>
      <path d="M542,566 C582,522 610,500 640,506"/>
      <path d="M486,580 C526,536 556,512 588,518"/>
    </g>

    <circle cx="512" cy="592" r="9" fill="#161a09" fill-opacity="0.75"/><circle cx="512" cy="592" r="4" fill="#c8bfad"/>
    <circle cx="552" cy="576" r="9" fill="#161a09" fill-opacity="0.75"/><circle cx="552" cy="576" r="4" fill="#c8bfad"/>
    <circle cx="590" cy="558" r="9" fill="#161a09" fill-opacity="0.75"/><circle cx="590" cy="558" r="4" fill="#c8bfad"/>
    <circle cx="620" cy="534" r="9" fill="#161a09" fill-opacity="0.75"/><circle cx="620" cy="534" r="4" fill="#c8bfad"/>
    <circle cx="646" cy="504" r="9" fill="#161a09" fill-opacity="0.75"/><circle cx="646" cy="504" r="4" fill="#c8bfad"/>
  </g>

  <rect x="-400" y="-400" width="2000" height="2000" filter="url(#grain-skate-4A4E3D-back)" opacity="0.05" style="mix-blend-mode:multiply"/>
</svg>