<svg xmlns="http://www.w3.org/2000/svg" viewBox="330 300 560 420" width="1200" height="1200" role="img" aria-label="bota de baloncesto">
  <defs>
    <radialGradient id="bg-high-232B33-detail" cx="50%" cy="38%" r="78%">
      <stop offset="0%" stop-color="#fbf5e9"/>
      <stop offset="100%" stop-color="#d9d3c7"/>
    </radialGradient>
    <linearGradient id="upper-high-232B33-detail" x1="14%" y1="0%" x2="86%" y2="100%">
      <stop offset="0%" stop-color="#495159"/>
      <stop offset="46%" stop-color="#232B33"/>
      <stop offset="100%" stop-color="#050d15"/>
    </linearGradient>
    <linearGradient id="mid-high-232B33-detail" x1="0%" y1="0%" x2="0%" y2="100%">
      <stop offset="0%" stop-color="#d3cab9"/>
      <stop offset="100%" stop-color="#b3aa99"/>
    </linearGradient>
    <radialGradient id="fold-high-232B33-detail" cx="32%" cy="22%" r="74%">
      <stop offset="0%" stop-color="#ffffff" stop-opacity="0.20"/>
      <stop offset="58%" stop-color="#ffffff" stop-opacity="0"/>
      <stop offset="100%" stop-color="#000000" stop-opacity="0.22"/>
    </radialGradient>
    <filter id="grain-high-232B33-detail">
      <feTurbulence type="fractalNoise" baseFrequency="0.9" numOctaves="3" seed="7"/>
      <feColorMatrix type="saturate" values="0"/>
    </filter>
    <filter id="drop-high-232B33-detail" x="-30%" y="-30%" width="160%" height="160%">
      <feDropShadow dx="0" dy="14" stdDeviation="13" flood-color="#3a3128" flood-opacity="0.10"/>
    </filter>
    <filter id="weave-high-232B33-detail">
      <feTurbulence type="fractalNoise" baseFrequency="0.55 0.72" numOctaves="2" seed="9" result="n"/>
      <feColorMatrix in="n" type="saturate" values="0"/>
      <feComponentTransfer><feFuncA type="linear" slope="0.11"/></feComponentTransfer>
    </filter>
    <clipPath id="body-high-232B33-detail"><path d="M176,746 C168,668 214,610 302,588
      L512,536 C572,522 612,498 640,462
      L662,332 C668,300 696,282 730,288
      C790,298 852,300 912,290
      C952,284 984,306 986,344
      L1012,690 C1016,722 998,744 964,746
      L176,748 Z"/></clipPath>
  </defs>

  <rect x="-400" y="-400" width="2000" height="2000" fill="url(#bg-high-232B33-detail)"/>
  <ellipse cx="600" cy="890" rx="440" ry="26" fill="#3a3128" opacity="0.07"/>

  <g filter="url(#drop-high-232B33-detail)" >
    <path d="M152,830 C146,806 164,790 198,788 L1008,764
      C1046,762 1066,778 1068,804 L1070,826
      C1072,854 1050,870 1012,872 L212,884
      C172,886 152,868 152,830 Z" fill="#89806f"/><path d="M152,830 C146,806 164,790 198,788 L1008,764
      C1046,762 1066,778 1068,804 L1070,826
      C1072,854 1050,870 1012,872 L212,884
      C172,886 152,868 152,830 Z" fill="none" stroke="#675e4d" stroke-opacity="0.55" stroke-width="2.6" stroke-linejoin="round"/>
    <path d="M158,806 C150,766 176,738 222,736 L990,720
      C1034,718 1058,746 1056,786 L1056,804 L158,826 Z" fill="url(#mid-high-232B33-detail)"/><path d="M158,806 C150,766 176,738 222,736 L990,720
      C1034,718 1058,746 1056,786 L1056,804 L158,826 Z" fill="none" stroke="#857c6b" stroke-opacity="0.55" stroke-width="2.6" stroke-linejoin="round"/>

    <path d="M176,746 C168,668 214,610 302,588
      L512,536 C572,522 612,498 640,462
      L662,332 C668,300 696,282 730,288
      C790,298 852,300 912,290
      C952,284 984,306 986,344
      L1012,690 C1016,722 998,744 964,746
      L176,748 Z" fill="url(#upper-high-232B33-detail)"/>
    <g clip-path="url(#body-high-232B33-detail)">
      <rect x="0" y="0" width="1200" height="1200" fill="url(#fold-high-232B33-detail)"/>
      <rect x="0" y="0" width="1200" height="1200" filter="url(#weave-high-232B33-detail)" opacity="0.6"/>
      <path d="M176,746 C170,676 210,620 292,598 L392,572 L404,746 Z" fill="#050d15" fill-opacity="0.30"/><path d="M176,746 C170,676 210,620 292,598 L392,572 L404,746 Z" fill="none" stroke="#050d15" stroke-opacity="0.55" stroke-width="2.6" stroke-linejoin="round"/>
      <path d="M668,368 L982,344 L994,462 L676,486 Z" fill="#050d15" fill-opacity="0.30"/><path d="M668,368 L982,344 L994,462 L676,486 Z" fill="none" stroke="#050d15" stroke-opacity="0.55" stroke-width="2.6" stroke-linejoin="round"/>
      <path d="M448,704 C462,636 516,598 588,594 C638,592 668,624 662,670 L656,716 Z" fill="#050d15" fill-opacity="0.30"/><path d="M448,704 C462,636 516,598 588,594 C638,592 668,624 662,670 L656,716 Z" fill="none" stroke="#050d15" stroke-opacity="0.55" stroke-width="2.6" stroke-linejoin="round"/>
    </g>
    <path d="M176,746 C168,668 214,610 302,588
      L512,536 C572,522 612,498 640,462
      L662,332 C668,300 696,282 730,288
      C790,298 852,300 912,290
      C952,284 984,306 986,344
      L1012,690 C1016,722 998,744 964,746
      L176,748 Z" fill="none" stroke="#050d15" stroke-opacity="0.55" stroke-width="2.6" stroke-linejoin="round"/>

    <path d="M666,346 C700,320 760,314 830,316 C888,318 946,326 982,346" fill="none" stroke="#000003" stroke-opacity="0.55" stroke-width="14" stroke-linecap="round"/>

    <g fill="none" stroke="rgba(255,255,255,0.24)" stroke-width="2.4" stroke-dasharray="8 7" stroke-linecap="round">
      <path d="M404,746 L392,572"/>
      <path d="M158,826 L1056,786"/>
      <path d="M668,368 L982,344"/>
      <path d="M676,486 L994,462"/>
      <path d="M540,532 C580,486 610,460 640,462"/>
      <path d="M482,546 C522,500 552,474 584,480"/>
      <path d="M724,300 L740,494"/>
    </g>

    <circle cx="506" cy="558" r="9" fill="#000000" fill-opacity="0.75"/><circle cx="506" cy="558" r="4" fill="#cbc2b1"/>
    <circle cx="548" cy="540" r="9" fill="#000000" fill-opacity="0.75"/><circle cx="548" cy="540" r="4" fill="#cbc2b1"/>
    <circle cx="586" cy="518" r="9" fill="#000000" fill-opacity="0.75"/><circle cx="586" cy="518" r="4" fill="#cbc2b1"/>
    <circle cx="618" cy="492" r="9" fill="#000000" fill-opacity="0.75"/><circle cx="618" cy="492" r="4" fill="#cbc2b1"/>
    <circle cx="644" cy="462" r="9" fill="#000000" fill-opacity="0.75"/><circle cx="644" cy="462" r="4" fill="#cbc2b1"/>
  </g>

  <rect x="-400" y="-400" width="2000" height="2000" filter="url(#grain-high-232B33-detail)" opacity="0.05" style="mix-blend-mode:multiply"/>
</svg>